<?xml version="1.0" encoding="UTF-8"?>
<svg width="26px" height="28px" viewBox="0 0 26 28" version="1.1" xmlns="http://www.w3.org/2000/svg" xmlns:xlink="http://www.w3.org/1999/xlink">
    <title>54078CFC-FD8D-42D9-B26D-D9FEDD660E3E</title>
    <g id="Word-Spinner" stroke="none" stroke-width="1" fill="none" fill-rule="evenodd">
        <g id="Result-page-Copy" transform="translate(-947.000000, -762.000000)" fill="#EBA4A4">
            <g id="Group-6" transform="translate(947.473757, 762.862845)">
                <path d="M10.631728,14.1672619 L0.732233047,4.26776695 C-0.244077682,3.29145622 -0.244077682,1.70854378 0.732233047,0.732233047 C1.70854378,-0.244077682 3.29145622,-0.244077682 4.26776695,0.732233047 L12.449,8.914 L20.631728,0.732233047 C21.5655904,-0.20162939 23.0544533,-0.242232104 24.0365766,0.610424903 L24.1672619,0.732233047 C25.1435726,1.70854378 25.1435726,3.29145622 24.1672619,4.26776695 L24.1672619,4.26776695 L14.267767,14.1672619 C13.8008357,14.6341931 13.1951544,14.8778094 12.5834405,14.8981108 L12.3160545,14.8981108 C11.7043405,14.8778094 11.0986592,14.6341931 10.631728,14.1672619 Z" id="Combined-Shape" fill-opacity="0.5"></path>
                <path d="M10.631728,26.1672619 L0.732233047,16.267767 C-0.244077682,15.2914562 -0.244077682,13.7085438 0.732233047,12.732233 C1.70854378,11.7559223 3.29145622,11.7559223 4.26776695,12.732233 L12.449,20.914 L20.631728,12.732233 C21.5655904,11.7983706 23.0544533,11.7577679 24.0365766,12.6104249 L24.1672619,12.732233 C25.1435726,13.7085438 25.1435726,15.2914562 24.1672619,16.267767 L24.1672619,16.267767 L14.267767,26.1672619 C13.8008357,26.6341931 13.1951544,26.8778094 12.5834405,26.8981108 L12.3160545,26.8981108 C11.7043405,26.8778094 11.0986592,26.6341931 10.631728,26.1672619 Z" id="Combined-Shape-Copy"></path>
            </g>
        </g>
    </g>
</svg>