<?xml version="1.0" encoding="UTF-8"?>
<svg width="22px" height="16px" viewBox="0 0 22 16" version="1.1" xmlns="http://www.w3.org/2000/svg" xmlns:xlink="http://www.w3.org/1999/xlink">
    <title>9E9D0772-620A-487A-93B1-12AE5513B205</title>
    <defs>
        <polygon id="path-2" points="0 0 22 0 22 16 0 16"></polygon>
    </defs>
    <g id="Word-Spinner" stroke="none" stroke-width="1" fill="none" fill-rule="evenodd">
        <g id="Group-3-Copy" transform="translate(-1062.000000, -911.000000)">
            <g transform="translate(1062.000000, 911.000000)">
                <mask id="mask-3" fill="white">
                    <use xlink:href="#path-2"></use>
                </mask>
                <g id="Clip-2"></g>
                <path d="M10.7237152,6.5507088 C12.6163279,4.72348897 14.5260597,2.91232352 16.4243787,1.09056549 C17.2500731,0.298439211 18.2042473,-0.142476878 19.402412,0.0415691773 C21.6847871,0.392282838 22.7883644,3.06194369 21.3636741,4.79300277 C21.1777847,5.01892261 20.9808285,5.23855311 20.7688282,5.4416327 C17.4561941,8.61477207 14.1100134,11.7561337 10.8416469,14.9703193 C9.65887203,16.1333513 7.61322491,16.4738034 6.20115776,15.1331802 C4.3647442,13.3897079 2.51882003,11.6530216 0.746386975,9.85112461 C-0.341800458,8.74436565 -0.202426698,6.93667589 0.919307273,5.84911597 C2.05297274,4.75046694 3.90010736,4.61524606 5.09723458,5.62303062 C6.12023106,6.48417416 7.06524049,7.43005834 8.04051097,8.34284071 C8.16138226,8.45588339 8.25596966,8.59507649 8.45915101,8.8368852 C9.26323039,8.02291173 9.97704538,7.27133517 10.7237152,6.5507088 Z" id="Fill-1" fill="#EBD730" mask="url(#mask-3)"></path>
            </g>
        </g>
    </g>
</svg>